<?xml version="1.0" encoding="UTF-8" standalone="no"?>
<svg
   version="1.1"
   width="287"
   height="171"
   style="clip-rule:evenodd;fill-rule:evenodd;image-rendering:optimizeQuality;shape-rendering:geometricPrecision;text-rendering:geometricPrecision"
   id="svg370"
   sodipodi:docname="namiotjpg.svg"
   xmlns:inkscape="http://www.inkscape.org/namespaces/inkscape"
   xmlns:sodipodi="http://sodipodi.sourceforge.net/DTD/sodipodi-0.dtd"
   xmlns="http://www.w3.org/2000/svg"
   xmlns:svg="http://www.w3.org/2000/svg">
  <defs
     id="defs374" />
  <sodipodi:namedview
     id="namedview372"
     pagecolor="#ffffff"
     bordercolor="#999999"
     borderopacity="1"
     inkscape:showpageshadow="0"
     inkscape:pageopacity="0"
     inkscape:pagecheckerboard="0"
     inkscape:deskcolor="#d1d1d1"
     showgrid="false" />
  <g
     id="g344"
     transform="translate(-33.5,-18.5)">
    <path
       style="opacity:1"
       fill="#2a2c2b"
       d="m 157.5,20.5 c 1.333,0 2.667,0 4,0 -3.498,53.2936 -6.331,106.627 -8.5,160 -0.182,2.726 -0.682,5.393 -1.5,8 -16.505,-8.447 -33.839,-14.613 -52,-18.5 -21.8976,-4.261 -43.8976,-7.761 -66,-10.5 13.5726,-33.829 31.7392,-64.8292 54.5,-93 18.899,-22.0159 42.065,-37.3492 69.5,-46 z"
       id="path342" />
  </g>
  <g
     id="g348"
     transform="translate(-33.5,-18.5)">
    <path
       style="opacity:1"
       fill="#2b2d2c"
       d="m 158.5,189.5 c -0.995,-11.822 -1.328,-23.822 -1,-36 2.213,-45.028 4.88,-90.0284 8,-135 20.622,0.4848 39.622,6.3181 57,17.5 25.965,18.2967 47.465,40.7967 64.5,67.5 13.264,19.86 24.43,40.86 33.5,63 -55.348,-1.474 -109.348,6.193 -162,23 z"
       id="path346" />
  </g>
  <g
     id="g352"
     transform="translate(-33.5,-18.5)">
    <path
       style="opacity:1"
       fill="#eef0ef"
       d="m 213.5,56.5 c 4.346,-0.1657 8.679,10e-4 13,0.5 1.259,0.9234 2.592,1.7568 4,2.5 12.562,26.1232 25.395,52.123 38.5,78 2.523,8.53 -0.644,14.03 -9.5,16.5 -15.328,1.566 -30.661,3.066 -46,4.5 -7.502,-1 -13.335,-4.666 -17.5,-11 -9.321,-29.619 -18.488,-59.2861 -27.5,-89 0.333,-0.3333 0.667,-0.6667 1,-1 5.814,3.4912 12.148,5.1579 19,5 9.037,0.2275 17.37,-1.7725 25,-6 z"
       id="path350" />
  </g>
  <g
     id="g356"
     transform="translate(-33.5,-18.5)">
    <path
       style="opacity:1"
       fill="#2a2c2b"
       d="m 213.5,61.5 c 4.384,-0.3256 8.717,0.0078 13,1 12.333,26 24.667,52 37,78 -1.574,1.131 -3.241,1.298 -5,0.5 -21.842,-4.4 -43.508,-9.233 -65,-14.5 -6.333,-20 -12.667,-40 -19,-60 0.5,-0.3333 1,-0.6667 1.5,-1 13.132,3.5398 25.632,2.2065 37.5,-4 z"
       id="path354" />
  </g>
  <g
     id="g364"
     transform="translate(-33.5,-18.5)">
    <path
       style="opacity:1"
       fill="#2c2e2d"
       d="m 194.5,132.5 c 23.157,4.043 46.157,8.543 69,13.5 -1.708,2.043 -3.708,3.71 -6,5 -15.014,1.202 -30.014,2.202 -45,3 -9.409,-4.248 -15.409,-11.415 -18,-21.5 z"
       id="path362" />
  </g>
</svg>
